<?xml version="1.0" encoding="UTF-8" standalone="no"?>
<!DOCTYPE svg PUBLIC "-//W3C//DTD SVG 20010904//EN"
              "http://www.w3.org/TR/2001/REC-SVG-20010904/DTD/svg10.dtd">

<svg version="1.1"
     xmlns="http://www.w3.org/2000/svg"
     viewBox="0 0 176 176"
     x="0px"
     y="0px"
     style="enable-background:new 0 0 176 176;">

  <path
        fill="#E6EDF2" stroke="#E6EDF2" stroke-width="2"
        d="M 99.24,19.33
           C 101.46,22.25 114.36,30.45 118.53,33.58
             131.01,42.96 144.64,56.19 151.63,70.25
             154.37,75.74 156.94,81.61 156.88,87.88
             156.84,91.15 155.73,93.96 154.67,96.99
             154.67,96.99 140.94,78.77 140.94,78.77
             136.77,73.98 123.74,62.68 118.27,60.03
             118.27,60.03 104.05,54.66 104.05,54.66
             100.21,53.48 88.49,49.77 85.10,51.53
             83.40,52.44 77.30,64.92 75.80,67.63
             75.80,67.63 69.19,81.13 69.19,81.13
             69.19,81.13 61.19,94.99 61.19,94.99
             61.19,94.99 56.02,105.86 56.02,105.86
             56.02,105.86 43.02,128.37 43.02,128.37
             43.02,128.37 36.38,141.86 36.38,141.86
             36.38,141.86 26.38,159.18 26.38,159.18
             24.64,162.17 20.98,167.88 17.14,163.48
             14.59,160.57 17.56,156.48 19.09,153.82
             19.09,153.82 27.09,139.96 27.09,139.96
             27.09,139.96 33.73,126.47 33.73,126.47
             33.73,126.47 49.23,99.62 49.23,99.62
             49.23,99.62 56.36,85.27 56.36,85.27
             56.36,85.27 67.86,65.35 67.86,65.35
             67.86,65.35 75.49,50.13 75.49,50.13
             75.49,50.13 85.49,32.81 85.49,32.81
             89.18,26.40 91.08,19.01 96.49,13.75
             97.31,15.60 98.01,17.71 99.24,19.33 Z" />
</svg>
